<svg xmlns="http://www.w3.org/2000/svg" width="60" height="60" viewBox="0 0 60 60">
    <path fill="#FFF" fill-rule="nonzero" d="M51.283 16.864a2.207 2.207 0 0 0 1.72-.681l5.96-5.943a2.288 2.288 0 0 0 .796-1.756v-2.11h-.015a2.205 2.205 0 0 0-.668-1.623l-3.72-3.705a2.257 2.257 0 0 0-1.704-.81h-2.128c-.566 0-1.168.26-1.622.68L43.94 6.893a2.264 2.264 0 0 0-.778 1.72v.554L30.527 21.802c-2.078-.975-4.237-1.495-6.316-1.397-4.255.162-7.796 2.955-9.47 6.723-.21.487-.535.91-.909 1.169a2.917 2.917 0 0 1-1.428.552c-1.59.195-3.183.65-4.645 1.365-5.017 2.436-8.38 7.6-7.324 13.413 1.3 7.08 8.883 14.649 15.948 15.948 5.83 1.04 10.978-2.305 13.413-7.307a14.894 14.894 0 0 0 1.38-4.645c.05-.554.261-1.04.538-1.428a2.63 2.63 0 0 1 1.169-.911c3.766-1.69 6.577-5.23 6.739-9.483.097-2.078-.422-4.223-1.413-6.335l12.62-12.602h.454zm-1.397-4.58c-.634 0-1.202.261-1.624.683L33.777 27.452c-.812.78-.893 2.013-.26 2.924 1.038 1.787 1.607 3.606 1.559 5.23-.097 2.5-1.868 4.513-4.028 5.49a7.69 7.69 0 0 0-3.021 2.368c-.73 1.009-1.202 2.242-1.38 3.572a11.102 11.102 0 0 1-.958 3.25c-1.526 3.183-4.742 5.488-8.494 4.808C12.046 54.15 5.86 47.98 4.933 42.816c-.682-3.703 1.625-6.95 4.807-8.477a11.64 11.64 0 0 1 3.233-.974c1.347-.163 2.582-.65 3.573-1.364 1.006-.748 1.82-1.786 2.387-2.989.958-2.176 3.004-3.961 5.49-4.058 1.688-.065 3.539.55 5.357 1.623.91.55 2.08.389 2.795-.325L47.06 11.765a2.268 2.268 0 0 0 .665-1.622V9.557l4.758-4.71h.21l2.486 2.47v.227l-4.758 4.74h-.536zm-23.938 16.76c-2.776 0-5.034 2.274-5.034 5.035 0 2.762 2.258 5.034 5.034 5.034a5.037 5.037 0 0 0 5.033-5.034 5.039 5.039 0 0 0-5.033-5.035zm0 7.307a2.28 2.28 0 0 1-2.274-2.272c0-1.267 1.007-2.306 2.274-2.306 1.267 0 2.29 1.04 2.29 2.306 0 1.234-1.023 2.272-2.29 2.272zm-11.271 3.834a1.325 1.325 0 0 0-1.948-.033 1.382 1.382 0 0 0 0 1.949l5.196 5.164c.505.52 1.396.52 1.95.033.502-.554.502-1.43 0-1.95l-5.198-5.163z"/>
</svg>
