<svg xmlns="http://www.w3.org/2000/svg" width="60" height="50" viewBox="0 0 60 50">
    <path fill="#FFF" fill-rule="nonzero" d="M53.375 3.438C53.375 1.75 52 .312 50.25.312H9.75c-1.688 0-3.125 1.375-3.125 3.126v26.5h46.75v-26.5zM49 25.563H11V4.75h38v20.813zM59.375 45.25c1 2.063-.563 4.438-2.813 4.375H3.438A3.087 3.087 0 0 1 .624 45.25l6-13.125h46.75l6 13.125zm-22.625-.375c.375 0 .688-.375.563-.813l-.75-3c-.063-.312-.313-.5-.626-.5H24.063c-.313 0-.563.25-.625.5l-.75 3c-.063.438.187.813.625.813H36.75z"/>
</svg>
