<svg xmlns="http://www.w3.org/2000/svg" width="59" height="50" viewBox="0 0 59 50">
    <path fill="#FFF" fill-rule="nonzero" d="M10 30.417c-.347.07-.625.07-.833.07-3.68 0-7.153-3.126-8.334-7.71-.625-2.43-.555-4.86.209-6.944.833-2.222 2.36-3.75 4.305-4.236 1.945-.555 3.959.07 5.556 1.667 1.389 1.389 2.5 3.403 3.125 5.903.764 2.916 1.389 6.597-.209 9.027-.833 1.181-2.083 1.945-3.819 2.223zM19.514.764c3.68-.764 7.5 2.57 8.611 7.639 1.042 5-1.944 8.125-4.236 10.07-.972.833-1.945 1.11-2.708 1.11-.487 0-.903-.07-1.25-.208-2.778-.972-4.584-5-5.209-8.194-1.041-5.07 1.042-9.653 4.792-10.417zM42.222 32.43c4.584 1.597 6.736 6.388 6.597 10.069 0 3.472-2.36 7.5-9.027 7.5-2.917 0-5.278-.486-7.292-.833-1.528-.278-2.847-.556-4.097-.556-1.25 0-2.57.278-4.097.556-2.014.416-4.306.833-7.292.833-6.667 0-9.028-4.028-9.028-7.5 0-3.403 0-7.639 5.972-10.07 2.292-.833 3.403-2.916 4.584-5.208.764-1.389 1.527-2.847 2.57-3.958 2.916-3.056 7.152-3.125 7.36-3.125.209 0 5.14.07 8.056 3.125 1.25 1.32 1.805 2.917 2.36 4.514.765 2.153 1.39 3.958 3.334 4.653zM56.25 15.833c1.528 1.25 2.222 3.264 2.014 5.625-.139 2.153-1.111 4.445-2.708 6.32-2.223 2.708-5.14 4.166-7.778 4.166-1.39 0-2.709-.416-3.75-1.319-3.056-2.57-2.778-7.778.625-11.944 3.472-4.098 8.541-5.348 11.597-2.848zM39.236.763c1.875.21 3.472 1.46 4.445 3.473.972 1.806 1.25 4.097.972 6.389-.417 3.264-2.153 7.292-4.792 8.403a3.31 3.31 0 0 1-1.389.278c-.764 0-1.597-.348-2.36-.903-1.945-1.459-5.487-4.306-4.793-9.584.348-2.291 1.25-4.375 2.64-5.902C35.485 1.25 37.36.487 39.235.764z"/>
</svg>
