<svg xmlns="http://www.w3.org/2000/svg" width="63" height="60" viewBox="0 0 63 60">
    <path fill="#FFF" fill-rule="nonzero" d="M62.283 23.022L45.39 37.63l5.152 21.783L31.37 47.739 12.196 59.413l5.152-21.783L.326 23.022l22.37-1.826L31.304.522l8.609 20.674 22.37 1.826zm-11.218 3.652L40.24 36 43.5 49.891l-12.196-7.434L19.11 49.89 22.369 36l-10.826-9.326L25.826 25.5l5.478-13.174L36.848 25.5l14.217 1.174zm-4.108 28.043l-4.24-17.87 13.957-11.934-18.326-1.5-7.044-16.956-7.043 16.956-18.326 1.5L19.89 36.848l-4.239 17.87 15.652-9.588 15.653 9.587z"/>
</svg>
