<svg xmlns="http://www.w3.org/2000/svg" width="54" height="50" viewBox="0 0 54 50">
    <g fill="#FFF" fill-rule="nonzero">
        <path d="M5.658 48.468a4.83 4.83 0 0 1-4.825-4.824V19.233a4.83 4.83 0 0 1 4.825-4.825h42.018a4.83 4.83 0 0 1 4.824 4.825v24.411a4.83 4.83 0 0 1-4.824 4.824H5.658zm-.277-4.158h33.77V18.566H5.38V44.31zm35.535-3.38h8.922v-3.333h-8.922v3.334zm0-3.6h8.922v-3.332h-8.922v3.333zm0-3.6h8.922v-3.334h-8.922v3.333zm4.278-14.104c-2.359 0-4.279 1.919-4.279 4.279s1.92 4.28 4.28 4.28c2.36 0 4.28-1.92 4.28-4.28 0-2.36-1.92-4.28-4.28-4.28zM5.268 1.875l10.919 11.698L5.268 1.875z"/>
        <path d="M47.676 15.24c2.2 0 3.99 1.792 3.99 3.993v24.411c0 2.201-1.79 3.991-3.99 3.991H5.658c-2.2 0-3.991-1.79-3.991-3.99V19.231c0-2.2 1.79-3.991 3.991-3.991h42.018zM4.547 45.144h35.437v-27.41H4.547v27.41zm40.647-16.125a5.12 5.12 0 0 0 5.113-5.113 5.119 5.119 0 0 0-5.113-5.113 5.118 5.118 0 0 0-5.112 5.113 5.12 5.12 0 0 0 5.112 5.113zm-5.111 5.544v7.202H50.67V29.563H40.083V34.562zM5.309.699L4.09 1.835l10.957 11.738H5.658C2.547 13.574 0 16.121 0 19.233v24.411c0 3.112 2.547 5.658 5.658 5.658h42.018c3.111 0 5.657-2.546 5.657-5.658V19.233c0-3.112-2.545-5.659-5.657-5.659H17.24l9.125-11.798-1.318-1.02-8.919 11.533L5.31.698zm.905 42.779V19.399h32.104v24.078H6.214zm38.98-16.125a3.446 3.446 0 1 1 0-6.893 3.446 3.446 0 0 1 0 6.893zm-3.445 5.544v-1.667h7.255v1.667H41.75zm0 3.602V34.83h7.255v1.666H41.75zm0 3.6V38.43h7.255v1.666H41.75z"/>
    </g>
</svg>
