<svg xmlns="http://www.w3.org/2000/svg" width="53" height="50" viewBox="0 0 53 50">
    <path fill="#FFF" fill-rule="nonzero" d="M37.763 46.487C45.082 42.096 50 34.133 50 25 50 11.241 38.759 0 25 0S0 11.241 0 25s11.241 25 25 25h27.576v-3.513H37.763zm-8.782-34.309c2.4-2.4 6.382-2.4 8.841 0 1.171 1.23 1.815 2.752 1.815 4.45 0 1.698-.644 3.278-1.815 4.45-1.23 1.229-2.869 1.814-4.45 1.814-1.58 0-3.22-.644-4.39-1.815-1.172-1.23-1.816-2.751-1.816-4.45 0-1.697.644-3.278 1.815-4.449zm-16.744 0a6.22 6.22 0 0 1 8.84 0c1.171 1.23 1.815 2.752 1.815 4.45 0 1.698-.644 3.278-1.815 4.45-1.23 1.229-2.869 1.814-4.45 1.814-1.639 0-3.22-.644-4.39-1.815-1.171-1.23-1.815-2.751-1.815-4.45 0-1.697.644-3.278 1.815-4.449zm8.84 25.644c-1.23 1.23-2.869 1.815-4.45 1.815-1.639 0-3.22-.585-4.449-1.815a6.22 6.22 0 0 1 0-8.84 6.29 6.29 0 0 1 8.9 0 6.22 6.22 0 0 1 0 8.84zM25 27.927A2.899 2.899 0 0 1 22.073 25 2.899 2.899 0 0 1 25 22.073 2.899 2.899 0 0 1 27.927 25 2.899 2.899 0 0 1 25 27.927zm3.981 9.895a6.22 6.22 0 0 1 0-8.84c2.4-2.46 6.382-2.46 8.9 0a6.22 6.22 0 0 1 0 8.84c-1.23 1.23-2.87 1.815-4.45 1.815-1.64 0-3.22-.585-4.45-1.815z"/>
</svg>
