<svg xmlns="http://www.w3.org/2000/svg" width="60" height="50" viewBox="0 0 60 50">
    <path fill="#FFF" fill-rule="nonzero" d="M21.866 19.486c1.511-3.87 4.557-6.515 8.07-6.515 3.59 0 6.694 2.765 8.168 6.778-4.521 1.382-11.816 1.282-16.238-.263zm34.952 23.5c7.186-11.386 1.83-30.003-17.586-22-4.6 1.895-13.548 1.816-18.188-.182-19.26-8.293-25.706 7.84-17.652 22.181 4.093 7.287 13.178 10.292 14.99 2.132 2.466-11.1 20.98-11.138 23.446 0 1.807 8.161 10.53 4.936 14.99-2.132zm-46.703-3.163a1.306 1.306 0 0 1-1.302-1.302v-3.636H5.178a1.306 1.306 0 0 1-1.302-1.301V31.25c0-.716.586-1.302 1.302-1.302h3.635v-3.635c0-.716.586-1.302 1.302-1.302h2.333c.716 0 1.302.586 1.302 1.302v3.635h3.635c.716 0 1.302.586 1.302 1.302v2.334c0 .715-.586 1.301-1.302 1.301H13.75v3.636c0 .715-.586 1.302-1.302 1.302h-2.333zm37.626.848a2.997 2.997 0 1 1 0-5.995 2.997 2.997 0 0 1 0 5.995zm0-10.513a2.997 2.997 0 1 1 0-5.993 2.997 2.997 0 0 1 0 5.993zm-2.258 2.26a2.997 2.997 0 1 1-5.995-.001 2.997 2.997 0 0 1 5.995 0zm10.512 0A2.997 2.997 0 1 1 50 32.416a2.997 2.997 0 0 1 5.994 0zm-26.91-20.506c.302-4.784 3.053-5.373 5.72-5.944 2.085-.445 4.095-.875 3.39-5.647L40.388 0c1.01 6.826-2.001 7.47-5.123 8.138-1.803.385-3.66.783-3.953 3.717a4.691 4.691 0 0 0-2.227.057z"/>
</svg>
