<svg xmlns="http://www.w3.org/2000/svg" width="47" height="50" viewBox="0 0 47 50">
    <path fill="#FFF" fill-rule="nonzero" d="M39.067 3.938l-.725-.726-2.487 2.332A21.32 21.32 0 0 0 21.45 0C9.637 0 0 9.637 0 21.503c0 4.922 1.658 9.43 4.404 13.057L1.917 36.89l.622.777a24.934 24.934 0 0 0 17.772 8.653v1.606h-6.218a1.04 1.04 0 0 0-1.036 1.037c0 .57.466 1.036 1.036 1.036h13.99a1.04 1.04 0 0 0 1.036-1.036 1.04 1.04 0 0 0-1.036-1.037h-5.7v-1.554c13.316-.518 23.938-11.45 23.938-24.87 0-6.633-2.539-12.902-7.254-17.565zm-5.803 27.41l2.073-1.037 3.005.829c-3.368 5.855-9.637 9.793-16.84 9.793-2.59 0-5.129-.518-7.357-1.451V38.6h.518c.518 0 .518 0 1.036-.518.519-.518.519 0 1.037-.518.518-.518 0-.518-.518-.518-.519 0 0-1.037 0-1.555v-1.036l1.554.518s1.036.518 1.554.518c.519 0 1.037-.518 1.037-1.036s.518-1.036.518-1.554c0-.519-1.036-1.555-1.036-1.555s-2.073-.518-2.591-.518c-.518 0-1.555 0-1.555-.518v-2.59h1.555c.518 0 .518 0 1.036-.519.518-.518 1.555-.518 1.555-.518l1.554 2.072s2.073.519 2.59.519c.519 0 1.037-1.037 1.037-1.037l2.072-.518 1.555 1.555 1.554 2.072h3.057zM21.451 2.072c2.383 0 4.715.466 6.84 1.243 0 .31-.053.725-.208 1.088-.518 1.036.518 1.036 1.036 2.073.518 1.036 0 2.072-1.036 3.108-1.036 1.037-1.555 2.591-1.036 3.11.518.517 1.917 4.3 1.554 4.663-1.554 1.554-3.109 0-4.663-1.037-1.555-1.036-2.073-3.109-3.109-3.627-1.036-.518-3.627 3.627-5.7 3.627-2.072 0-2.59-2.59-3.108-3.109-.518-.518-2.073-2.59-2.073-3.108 0-.415-2.953.103-4.404.362a19.257 19.257 0 0 1 15.907-8.393zM8.91 27.203c0-.52-2.072-1.037-2.072-1.037l.519-2.59H9.43l1.554.517s1.037 2.59 1.555 3.11c.518.517 0 1.035-.518 1.553-.518.519-1.037 2.073-1.555 2.073s-1.036-.518-1.036-.518.518-1.036.518-2.073c0-1.036-1.036-.518-1.036-1.036zM21.452 44.3a22.857 22.857 0 0 1-16.684-7.254l.984-.881c3.938 4.197 9.534 6.891 15.752 6.891 11.865 0 21.502-9.637 21.502-21.503a21.327 21.327 0 0 0-5.647-14.507l.984-.881c3.886 4.197 6.01 9.637 6.01 15.388-.103 12.54-10.31 22.747-22.901 22.747z"/>
</svg>
